<svg width="10" height="10" viewBox="0 0 10 10" fill="none" xmlns="http://www.w3.org/2000/svg">
<g clip-path="url(#clip0_1_4124)">
<path d="M6.80211 4.87568C6.79847 4.25498 7.0797 3.78718 7.64761 3.44225C7.32998 2.98719 6.84944 2.73691 6.216 2.68867C5.61623 2.64135 4.96004 3.03816 4.71977 3.03816C4.46585 3.03816 3.88519 2.70505 3.42832 2.70505C2.48544 2.71962 1.4834 3.45681 1.4834 4.95668C1.4834 5.39991 1.5644 5.85769 1.7264 6.32913C1.94301 6.94983 2.72389 8.47064 3.53844 8.44606C3.96437 8.43605 4.26562 8.1439 4.81988 8.1439C5.35776 8.1439 5.63626 8.44606 6.11134 8.44606C6.93317 8.43423 7.63942 7.05177 7.84511 6.42925C6.74296 5.90957 6.80211 4.90753 6.80211 4.87568ZM5.84558 2.09983C6.30701 1.55194 6.26515 1.05319 6.25149 0.873901C5.84376 0.897564 5.37232 1.15149 5.10384 1.46366C4.80805 1.79858 4.63422 2.21268 4.67153 2.67957C5.11203 2.71324 5.5143 2.48663 5.84558 2.09983Z" fill="#313131"/>
</g>
<defs>
<clipPath id="clip0_1_4124">
<rect width="9.31958" height="9.31958" fill="white"/>
</clipPath>
</defs>
</svg>
