<svg width="10" height="10" viewBox="0 0 10 10" fill="none" xmlns="http://www.w3.org/2000/svg">
<g clip-path="url(#clip0_1_4118)">
<path d="M8.46765 3.8995H8.15486V3.88338H4.66002V5.43665H6.85458C6.53442 6.34084 5.6741 6.98991 4.66002 6.98991C3.37333 6.98991 2.33012 5.9467 2.33012 4.66002C2.33012 3.37333 3.37333 2.33012 4.66002 2.33012C5.25394 2.33012 5.79429 2.55418 6.20571 2.92017L7.30406 1.82181C6.61053 1.17546 5.68284 0.776855 4.66002 0.776855C2.51554 0.776855 0.776855 2.51554 0.776855 4.66002C0.776855 6.80449 2.51554 8.54317 4.66002 8.54317C6.80449 8.54317 8.54317 6.80449 8.54317 4.66002C8.54317 4.39965 8.51638 4.1455 8.46765 3.8995Z" fill="#FFC107"/>
<path d="M1.22437 2.8526L2.50018 3.78825C2.84539 2.93356 3.68143 2.33012 4.6598 2.33012C5.25373 2.33012 5.79407 2.55418 6.20549 2.92017L7.30384 1.82181C6.61031 1.17546 5.68262 0.776855 4.6598 0.776855C3.16827 0.776855 1.87479 1.61892 1.22437 2.8526Z" fill="#FF3D00"/>
<path d="M4.66011 8.54319C5.66313 8.54319 6.57451 8.15934 7.26357 7.53512L6.06173 6.51812C5.65877 6.82458 5.16637 6.99032 4.66011 6.98992C3.6501 6.98992 2.7925 6.3459 2.46942 5.44714L1.20312 6.42279C1.84579 7.68035 3.15092 8.54319 4.66011 8.54319Z" fill="#4CAF50"/>
<path d="M8.46754 3.89942H8.15476V3.8833H4.65991V5.43656H6.85448C6.70133 5.8669 6.42546 6.24294 6.06096 6.51822L6.06154 6.51783L7.26338 7.53483C7.17834 7.61211 8.54307 6.60151 8.54307 4.65993C8.54307 4.39957 8.51628 4.14541 8.46754 3.89942Z" fill="#1976D2"/>
</g>
<defs>
<clipPath id="clip0_1_4118">
<rect width="9.31958" height="9.31958" fill="white"/>
</clipPath>
</defs>
</svg>
