<svg width="19" height="19" viewBox="0 0 19 19" fill="none" xmlns="http://www.w3.org/2000/svg">
<g clip-path="url(#clip0_1005_90)">
<path d="M12.5233 12.8145C12.485 12.8146 12.4471 12.807 12.4118 12.7924C12.3765 12.7777 12.3444 12.7562 12.3174 12.7291L5.91017 6.32191C5.85786 6.26685 5.82913 6.19353 5.8301 6.11759C5.83107 6.04164 5.86167 5.96908 5.91538 5.91538C5.96908 5.86167 6.04164 5.83107 6.11759 5.8301C6.19353 5.82913 6.26685 5.85786 6.32191 5.91017L12.7291 12.3174C12.7698 12.3581 12.7975 12.41 12.8088 12.4665C12.82 12.523 12.8142 12.5815 12.7922 12.6347C12.7702 12.6879 12.7329 12.7334 12.685 12.7654C12.6371 12.7974 12.5808 12.8145 12.5233 12.8145V12.8145ZM9.17403 10.4091L8.23133 9.46636C8.22593 9.461 8.21899 9.45747 8.21148 9.45627C8.20397 9.45506 8.19627 9.45623 8.18946 9.45963C8.18265 9.46302 8.17707 9.46846 8.17352 9.47519C8.16996 9.48191 8.1686 9.48958 8.16963 9.49712C8.20769 9.74169 8.32252 9.96783 8.49754 10.1428C8.67256 10.3179 8.8987 10.4327 9.14327 10.4708C9.15081 10.4718 9.15848 10.4704 9.1652 10.4669C9.17193 10.4633 9.17737 10.4577 9.18076 10.4509C9.18416 10.4441 9.18533 10.4364 9.18413 10.4289C9.18292 10.4214 9.17939 10.4145 9.17403 10.4091ZM9.46527 8.23024L10.4094 9.17403C10.4148 9.17946 10.4218 9.18306 10.4293 9.18431C10.4369 9.18556 10.4446 9.1844 10.4515 9.18099C10.4583 9.17759 10.4639 9.17211 10.4675 9.16534C10.4711 9.15857 10.4724 9.15084 10.4713 9.14327C10.4333 8.89837 10.3184 8.6719 10.1432 8.49666C9.96795 8.32142 9.74148 8.2065 9.49658 8.16854C9.48899 8.16737 9.48123 8.16862 9.47441 8.17212C9.46758 8.17563 9.46203 8.1812 9.45856 8.18804C9.45509 8.19489 9.45387 8.20265 9.45507 8.21023C9.45628 8.21781 9.45985 8.22481 9.46527 8.23024V8.23024Z" fill="#313131"/>
<path d="M13.597 9.63559C13.6573 9.541 13.6891 9.43112 13.6888 9.31897C13.6885 9.20682 13.656 9.09711 13.5952 9.00288C13.1136 8.25804 12.4887 7.62533 11.7883 7.173C11.0123 6.67207 10.1568 6.40723 9.31366 6.40723C8.86918 6.40784 8.42772 6.48031 8.00637 6.62183C7.99457 6.62575 7.98398 6.63263 7.9756 6.6418C7.96721 6.65098 7.96132 6.66215 7.95847 6.67424C7.95563 6.68634 7.95592 6.69897 7.95934 6.71092C7.96275 6.72287 7.96916 6.73374 7.97797 6.74251L8.83785 7.60239C8.84678 7.61134 8.85789 7.61781 8.87008 7.62116C8.88228 7.62451 8.89513 7.62463 8.90738 7.6215C9.19885 7.55047 9.50369 7.55568 9.79256 7.63662C10.0814 7.71755 10.3446 7.8715 10.5567 8.08363C10.7689 8.29575 10.9228 8.55892 11.0037 8.84779C11.0847 9.13666 11.0899 9.44151 11.0188 9.73297C11.0158 9.7452 11.0159 9.75801 11.0192 9.77017C11.0226 9.78233 11.029 9.79341 11.038 9.80232L12.2748 11.0401C12.2877 11.053 12.3049 11.0606 12.3231 11.0614C12.3413 11.0622 12.3591 11.0561 12.3731 11.0444C12.8492 10.6386 13.2618 10.1637 13.597 9.63559ZM9.31948 11.067C9.05496 11.067 8.79388 11.007 8.55594 10.8914C8.31799 10.7758 8.10939 10.6078 7.94586 10.3998C7.78234 10.1919 7.66815 9.94958 7.61191 9.6911C7.55567 9.43262 7.55885 9.16475 7.62121 8.90768C7.6243 8.89545 7.62416 8.88263 7.62081 8.87048C7.61746 8.85832 7.61101 8.84724 7.60209 8.83833L6.38545 7.62114C6.37255 7.60822 6.35527 7.60062 6.33703 7.59985C6.31879 7.59907 6.30093 7.60518 6.28698 7.61695C5.84302 7.99574 5.43147 8.45662 5.05523 8.99523C4.98937 9.08976 4.9531 9.20173 4.95102 9.31691C4.94895 9.4321 4.98116 9.54531 5.04358 9.64214C5.5243 10.3944 6.14281 11.0281 6.8325 11.4742C7.60956 11.9771 8.44431 12.232 9.31366 12.232C9.76262 12.2308 10.2087 12.1598 10.6359 12.0217C10.6478 12.0179 10.6585 12.0111 10.667 12.002C10.6755 11.9928 10.6815 11.9817 10.6845 11.9695C10.6874 11.9574 10.6872 11.9447 10.6838 11.9327C10.6804 11.9206 10.674 11.9097 10.6652 11.9009L9.80112 11.037C9.7922 11.0281 9.78112 11.0216 9.76896 11.0183C9.75681 11.0149 9.74399 11.0148 9.73176 11.0179C9.59678 11.0506 9.45837 11.0671 9.31948 11.067V11.067Z" fill="#313131"/>
</g>
<defs>
<clipPath id="clip0_1005_90">
<rect width="9.31958" height="9.31958" fill="white" transform="translate(4.65967 4.65991)"/>
</clipPath>
</defs>
</svg>
