<svg width="9" height="6" viewBox="0 0 9 6" fill="none" xmlns="http://www.w3.org/2000/svg">
<path d="M8.6461 3.22836C8.70636 3.13378 8.73822 3.02389 8.7379 2.91174C8.73757 2.79959 8.70508 2.68989 8.64428 2.59565C8.16264 1.85081 7.53776 1.2181 6.83733 0.765771C6.06137 0.264844 5.20586 0 4.36273 0C3.91825 0.000610465 3.47679 0.0730806 3.05544 0.214605C3.04365 0.218528 3.03305 0.225403 3.02467 0.234578C3.01629 0.243752 3.01039 0.25492 3.00754 0.267017C3.0047 0.279115 3.005 0.29174 3.00841 0.30369C3.01182 0.31564 3.01824 0.326517 3.02704 0.335287L3.88692 1.19516C3.89585 1.20411 3.90696 1.21058 3.91916 1.21393C3.93135 1.21728 3.9442 1.2174 3.95645 1.21428C4.24792 1.14325 4.55276 1.14845 4.84163 1.22939C5.1305 1.31033 5.39367 1.46427 5.6058 1.6764C5.81793 1.88853 5.97187 2.1517 6.05281 2.44057C6.13375 2.72944 6.13895 3.03428 6.06792 3.32574C6.06483 3.33797 6.06497 3.35079 6.06832 3.36294C6.07167 3.3751 6.07812 3.38618 6.08703 3.3951L7.32388 4.63285C7.33675 4.64574 7.35398 4.65334 7.37218 4.65415C7.39038 4.65496 7.40821 4.64892 7.42217 4.63722C7.89827 4.23141 8.31083 3.75652 8.6461 3.22836ZM4.36855 4.65979C4.10403 4.65981 3.84295 4.59977 3.60501 4.48419C3.36706 4.36862 3.15846 4.20054 2.99494 3.99261C2.83141 3.78469 2.71722 3.54235 2.66098 3.28387C2.60474 3.0254 2.60792 2.75752 2.67028 2.50045C2.67337 2.48823 2.67324 2.47541 2.66989 2.46325C2.66653 2.45109 2.66008 2.44002 2.65117 2.4311L1.43452 1.21391C1.42162 1.201 1.40434 1.1934 1.3861 1.19262C1.36786 1.19185 1.35 1.19795 1.33605 1.20973C0.892094 1.58852 0.48054 2.0494 0.104298 2.588C0.0384395 2.68253 0.0021685 2.7945 9.4221e-05 2.90969C-0.00198006 3.02488 0.0302361 3.13808 0.0926488 3.23491C0.573372 3.98722 1.19189 4.62084 1.88157 5.06698C2.65863 5.56991 3.49339 5.82474 4.36273 5.82474C4.81169 5.82353 5.25775 5.75261 5.68495 5.6145C5.69684 5.6107 5.70757 5.6039 5.71608 5.59476C5.72459 5.58562 5.73061 5.57444 5.73355 5.5623C5.73649 5.55016 5.73626 5.53747 5.73288 5.52545C5.7295 5.51342 5.72309 5.50247 5.71425 5.49364L4.85019 4.62976C4.84127 4.62084 4.83019 4.61439 4.81804 4.61104C4.80588 4.60769 4.79306 4.60755 4.78084 4.61065C4.64585 4.64335 4.50745 4.65985 4.36855 4.65979V4.65979Z" fill="#313131"/>
</svg>
