<svg width="13" height="17" viewBox="0 0 13 17" fill="none" xmlns="http://www.w3.org/2000/svg">
<path d="M2.2912 1.49726C4.03315 -0.0326511 6.634 -0.397682 8.77587 0.437057C11.8437 1.53752 13.6179 5.17977 12.7671 8.29059C12.394 9.5843 11.6693 10.7331 10.9741 11.8738C10.3407 10.7841 9.44688 9.87954 8.34374 9.2649C9.23753 8.32816 9.84144 6.92977 9.22679 5.67901C8.49136 3.70355 5.59259 3.12379 4.22104 4.76643C2.93269 6.0333 3.30578 8.10539 4.49481 9.29979C3.39435 9.83392 2.55424 10.7438 2.0389 11.847C0.814976 10.3251 -0.164702 8.45163 0.023181 6.43859C-0.0788129 4.53829 0.895498 2.7346 2.2912 1.49726Z" fill="#3869EB"/>
<path d="M6.948 9.79639C7.10649 10.5717 7.24957 11.3519 7.39038 12.1382C7.53888 12.9675 7.6885 13.8043 7.85327 14.6392C7.58427 14.9152 7.3188 15.2339 7.10718 15.4595C6.86868 15.7136 6.64893 15.9063 6.4187 16.0288C6.18712 15.9013 5.96547 15.707 5.72437 15.4556C5.5086 15.2305 5.24782 14.9281 4.97632 14.6616C5.15218 13.8243 5.30268 12.9847 5.44702 12.1519C5.58439 11.3593 5.71876 10.5746 5.86987 9.79443C6.22961 9.79537 6.58872 9.79632 6.948 9.79639Z" fill="#3869EB" stroke="black"/>
</svg>
